<svg width="16" height="16" viewBox="0 0 16 16" fill="none" xmlns="http://www.w3.org/2000/svg">
<path d="M6.58998 5.17001L2.11998 0.700008C2.0274 0.607427 1.91749 0.533987 1.79652 0.483882C1.67556 0.433777 1.54591 0.407988 1.41498 0.407988C1.28405 0.407988 1.1544 0.433777 1.03344 0.483882C0.912472 0.533987 0.802561 0.607427 0.70998 0.700008C0.617398 0.79259 0.543958 0.902501 0.493853 1.02347C0.443748 1.14443 0.417959 1.27408 0.417959 1.40501C0.417959 1.53594 0.443748 1.66559 0.493853 1.78655C0.543958 1.90752 0.617398 2.01743 0.70998 2.11001L5.16998 6.57001L6.58998 5.17001ZM11.35 0.850009L12.54 2.04001L0.699979 13.88C0.607397 13.9726 0.533957 14.0825 0.483852 14.2035C0.433747 14.3244 0.407959 14.4541 0.407959 14.585C0.407959 14.7159 0.433747 14.8456 0.483852 14.9666C0.533957 15.0875 0.607397 15.1974 0.699979 15.29C0.792561 15.3826 0.902472 15.456 1.02344 15.5061C1.1444 15.5562 1.27405 15.582 1.40498 15.582C1.53591 15.582 1.66556 15.5562 1.78652 15.5061C1.90749 15.456 2.0174 15.3826 2.10998 15.29L13.96 3.46001L15.15 4.65001C15.2205 4.71911 15.3098 4.7658 15.4068 4.78419C15.5038 4.80258 15.6041 4.79185 15.695 4.75335C15.7859 4.71486 15.8634 4.65031 15.9176 4.56786C15.9719 4.4854 16.0006 4.38872 16 4.29001V0.500009C16 0.220009 15.78 8.63001e-06 15.5 8.63001e-06H11.71C11.6113 -0.000571234 11.5146 0.0280824 11.4321 0.0823584C11.3497 0.136634 11.2851 0.214104 11.2466 0.305003C11.2081 0.395903 11.1974 0.496164 11.2158 0.593152C11.2342 0.69014 11.2809 0.779513 11.35 0.850009ZM10.83 9.41001L9.41998 10.82L12.55 13.95L11.35 15.15C11.2809 15.2205 11.2342 15.3099 11.2158 15.4069C11.1974 15.5039 11.2081 15.6041 11.2466 15.695C11.2851 15.7859 11.3497 15.8634 11.4321 15.9177C11.5146 15.9719 11.6113 16.0006 11.71 16H15.5C15.78 16 16 15.78 16 15.5V11.71C16 11.26 15.46 11.04 15.15 11.36L13.96 12.55L10.83 9.41001Z" fill="#126A85"/>
</svg>
